<svg xmlns="http://www.w3.org/2000/svg" xmlns:xlink="http://www.w3.org/1999/xlink" width="500" zoomAndPan="magnify" viewBox="0 0 375 374.999991" height="500" preserveAspectRatio="xMidYMid meet" version="1.0"><defs><g/><clipPath id="6e83e0d0c1"><path d="M 165 277 L 211 277 L 211 296.792969 L 165 296.792969 Z M 165 277 " clip-rule="nonzero"/></clipPath><clipPath id="506900d292"><path d="M 186 62.042969 L 191 62.042969 L 191 88 L 186 88 Z M 186 62.042969 " clip-rule="nonzero"/></clipPath><clipPath id="344e96d933"><path d="M 269 169 L 295.308594 169 L 295.308594 173 L 269 173 Z M 269 169 " clip-rule="nonzero"/></clipPath><clipPath id="aa3ba9ccbf"><path d="M 80.058594 169 L 106 169 L 106 173 L 80.058594 173 Z M 80.058594 169 " clip-rule="nonzero"/></clipPath></defs><g clip-path="url(#6e83e0d0c1)"><path fill="#151a34" d="M 165.734375 277.039062 C 167.195312 288.210938 176.753906 296.847656 188.351562 296.847656 C 199.953125 296.847656 209.511719 288.210938 210.972656 277.039062 L 165.734375 277.039062 " fill-opacity="1" fill-rule="nonzero"/></g><path fill="#f8a229" d="M 188.351562 108.234375 C 154.117188 108.363281 124.464844 134.429688 126.417969 166.585938 C 128.191406 195.832031 138.898438 198.085938 146.734375 222.007812 C 155.082031 247.5 169.011719 266.699219 185.679688 266.699219 L 191.023438 266.699219 C 207.691406 266.699219 221.625 247.5 229.972656 222.007812 C 237.804688 198.085938 248.511719 195.832031 250.285156 166.585938 C 252.242188 134.429688 222.589844 108.363281 188.351562 108.234375 " fill-opacity="1" fill-rule="nonzero"/><path fill="#fabf3f" d="M 191.566406 266.515625 C 191.566406 267.484375 190.125 268.28125 188.351562 268.28125 C 186.570312 268.28125 185.128906 267.484375 185.128906 266.515625 L 185.128906 203.753906 C 185.128906 202.785156 186.570312 201.988281 188.351562 201.988281 C 190.125 201.988281 191.566406 202.785156 191.566406 203.753906 L 191.566406 266.515625 " fill-opacity="1" fill-rule="nonzero"/><g clip-path="url(#506900d292)"><path fill="#fabf3f" d="M 190.273438 85.839844 C 190.273438 86.214844 189.410156 87.351562 188.351562 87.351562 C 187.296875 87.351562 186.441406 86.214844 186.441406 85.839844 L 186.441406 63.59375 C 186.441406 63.21875 187.296875 62.082031 188.351562 62.082031 C 189.410156 62.082031 190.273438 63.21875 190.273438 63.59375 L 190.273438 85.839844 " fill-opacity="1" fill-rule="nonzero"/></g><g clip-path="url(#344e96d933)"><path fill="#fabf3f" d="M 293.621094 169.171875 C 294 169.171875 295.136719 170.03125 295.136719 171.085938 C 295.136719 172.136719 294 173 293.621094 173 L 271.316406 173 C 270.9375 173 269.800781 172.136719 269.800781 171.085938 C 269.800781 170.03125 270.9375 169.171875 271.316406 169.171875 L 293.621094 169.171875 " fill-opacity="1" fill-rule="nonzero"/></g><g clip-path="url(#aa3ba9ccbf)"><path fill="#fabf3f" d="M 104.140625 169.171875 C 104.507812 169.171875 105.65625 170.03125 105.65625 171.085938 C 105.65625 172.136719 104.507812 173 104.140625 173 L 81.828125 173 C 81.460938 173 80.316406 172.136719 80.316406 171.085938 C 80.316406 170.03125 81.460938 169.171875 81.828125 169.171875 L 104.140625 169.171875 " fill-opacity="1" fill-rule="nonzero"/></g><path fill="#fabf3f" d="M 261.25 95.046875 C 261.515625 94.78125 262.929688 94.585938 263.675781 95.328125 C 264.429688 96.078125 264.226562 97.492188 263.960938 97.757812 L 248.191406 113.484375 C 247.925781 113.75 246.511719 113.949219 245.765625 113.199219 C 245.015625 112.457031 245.214844 111.046875 245.472656 110.78125 L 261.25 95.046875 " fill-opacity="1" fill-rule="nonzero"/><path fill="#fabf3f" d="M 127.265625 228.675781 C 127.53125 228.421875 128.945312 228.21875 129.6875 228.960938 C 130.441406 229.710938 130.238281 231.121094 129.972656 231.386719 L 114.207031 247.113281 C 113.9375 247.378906 112.523438 247.582031 111.773438 246.832031 C 111.027344 246.089844 111.230469 244.679688 111.496094 244.414062 L 127.265625 228.675781 " fill-opacity="1" fill-rule="nonzero"/><path fill="#fabf3f" d="M 114.207031 95.046875 C 113.9375 94.78125 112.523438 94.585938 111.773438 95.328125 C 111.027344 96.078125 111.230469 97.492188 111.496094 97.757812 L 127.273438 113.484375 C 127.53125 113.75 128.945312 113.949219 129.6875 113.199219 C 130.441406 112.457031 130.238281 111.046875 129.972656 110.78125 L 114.207031 95.046875 " fill-opacity="1" fill-rule="nonzero"/><path fill="#fabf3f" d="M 248.191406 228.675781 C 247.925781 228.421875 246.511719 228.21875 245.765625 228.960938 C 245.015625 229.710938 245.214844 231.121094 245.472656 231.386719 L 261.25 247.113281 C 261.515625 247.378906 262.929688 247.582031 263.675781 246.832031 C 264.429688 246.089844 264.226562 244.679688 263.960938 244.414062 L 248.191406 228.675781 " fill-opacity="1" fill-rule="nonzero"/><path fill="#1a2140" d="M 217.730469 261.988281 C 217.730469 264.589844 215.617188 266.699219 213.019531 266.699219 L 163.6875 266.699219 C 161.085938 266.699219 158.976562 264.589844 158.976562 261.988281 C 158.976562 259.398438 161.085938 257.289062 163.6875 257.289062 L 213.019531 257.289062 C 215.617188 257.289062 217.730469 259.398438 217.730469 261.988281 " fill-opacity="1" fill-rule="nonzero"/><path fill="#1a2140" d="M 217.730469 271.394531 C 217.730469 273.988281 215.617188 276.09375 213.019531 276.09375 L 163.6875 276.09375 C 161.085938 276.09375 158.976562 273.988281 158.976562 271.394531 C 158.976562 268.792969 161.085938 266.699219 163.6875 266.699219 L 213.019531 266.699219 C 215.617188 266.699219 217.730469 268.792969 217.730469 271.394531 " fill-opacity="1" fill-rule="nonzero"/><path fill="#1a2140" d="M 217.730469 280.792969 C 217.730469 283.386719 215.617188 285.492188 213.019531 285.492188 L 163.6875 285.492188 C 161.085938 285.492188 158.976562 283.386719 158.976562 280.792969 C 158.976562 278.191406 161.085938 276.09375 163.6875 276.09375 L 213.019531 276.09375 C 215.617188 276.09375 217.730469 278.191406 217.730469 280.792969 " fill-opacity="1" fill-rule="nonzero"/><g fill="#faf9f7" fill-opacity="1"><g transform="translate(121.156909, 62.57063)"><g><path d="M 24.703125 -12.078125 C 25.984375 -12.304688 26.847656 -12.59375 27.296875 -12.9375 L 27.421875 -12.921875 L 28.5 -5.109375 L 5.328125 -0.953125 L -2.078125 -42.328125 C -1.515625 -42.378906 -0.890625 -42.457031 -0.203125 -42.5625 L 1.96875 -42.890625 C 3.40625 -43.109375 4.972656 -43.367188 6.671875 -43.671875 C 11.390625 -44.515625 16.050781 -45.4375 20.65625 -46.4375 C 20.757812 -44.582031 21.082031 -42.132812 21.625 -39.09375 C 21.6875 -38.769531 21.75 -38.523438 21.8125 -38.359375 L 21.765625 -38.265625 C 20.628906 -38.378906 19.070312 -38.257812 17.09375 -37.90625 L 7.34375 -36.15625 L 8.765625 -28.265625 L 16.109375 -29.59375 C 18.367188 -29.988281 19.710938 -30.285156 20.140625 -30.484375 L 21.609375 -22.859375 C 20.597656 -22.785156 19.3125 -22.609375 17.75 -22.328125 L 10.0625 -20.953125 L 12.0625 -9.8125 Z M 24.703125 -12.078125 "/></g></g></g><g fill="#faf9f7" fill-opacity="1"><g transform="translate(164.269214, 55.562997)"><g><path d="M 8.453125 0.109375 C 6.648438 -0.0234375 4.546875 -0.0703125 2.140625 -0.03125 L -0.34375 0 L 12.65625 -38.546875 C 13.238281 -40.273438 13.523438 -41.28125 13.515625 -41.5625 C 13.515625 -41.851562 13.503906 -42.03125 13.484375 -42.09375 L 13.515625 -42.15625 C 14.878906 -42.113281 16.328125 -42.109375 17.859375 -42.140625 C 19.117188 -42.160156 20.628906 -42.207031 22.390625 -42.28125 L 22.421875 -42.21875 C 22.378906 -42.132812 22.359375 -42.015625 22.359375 -41.859375 C 22.367188 -41.460938 22.703125 -40.410156 23.359375 -38.703125 L 37.96875 -0.5625 C 37.550781 -0.570312 37.0625 -0.570312 36.5 -0.5625 C 36.5 -0.5625 35.953125 -0.578125 34.859375 -0.609375 C 34.335938 -0.597656 33.863281 -0.585938 33.4375 -0.578125 L 28.578125 -0.5 L 25.46875 -9.484375 L 11.25 -9.25 Z M 22.890625 -17 L 17.875 -31.53125 L 13.515625 -16.828125 Z M 22.890625 -17 "/></g></g></g><g fill="#faf9f7" fill-opacity="1"><g transform="translate(213.058849, 55.475413)"><g><path d="M 15.265625 3.25 C 11.910156 2.707031 8.796875 1.929688 5.921875 0.921875 L 12.625 -40.609375 C 15.414062 -40.492188 18.613281 -40.144531 22.21875 -39.5625 C 25.832031 -38.976562 29.019531 -37.957031 31.78125 -36.5 C 34.539062 -35.050781 36.757812 -33.257812 38.4375 -31.125 C 41.832031 -26.832031 43 -21.410156 41.9375 -14.859375 C 40.757812 -7.515625 37.648438 -2.296875 32.609375 0.796875 C 28.085938 3.566406 22.304688 4.382812 15.265625 3.25 Z M 15.078125 -4.546875 C 16.390625 -4.078125 17.71875 -3.734375 19.0625 -3.515625 C 20.40625 -3.296875 21.894531 -3.320312 23.53125 -3.59375 C 25.175781 -3.875 26.65625 -4.488281 27.96875 -5.4375 C 30.78125 -7.394531 32.550781 -10.628906 33.28125 -15.140625 C 34.476562 -22.546875 32.515625 -27.53125 27.390625 -30.09375 C 25.703125 -30.9375 23.691406 -31.546875 21.359375 -31.921875 L 20.53125 -32.0625 C 20.207031 -32.113281 19.875 -32.160156 19.53125 -32.203125 Z M 15.078125 -4.546875 "/></g></g></g><g fill="#faf9f7" fill-opacity="1"><g transform="translate(31.880104, 282.376615)"><g><path d="M 32.484375 -27.09375 C 34.847656 -25.363281 37.140625 -23.441406 39.359375 -21.328125 C 43.472656 -17.398438 45.679688 -13.441406 45.984375 -9.453125 C 46.296875 -5.472656 44.617188 -1.554688 40.953125 2.296875 C 37.660156 5.742188 33.882812 7.347656 29.625 7.109375 C 25.632812 6.890625 21.910156 5.128906 18.453125 1.828125 C 18.054688 1.453125 17.644531 1.019531 17.21875 0.53125 L 9.28125 8.859375 L 3.484375 3.328125 Z M 34.8125 -15.203125 C 34.363281 -15.628906 33.894531 -16.039062 33.40625 -16.4375 L 22 -4.46875 C 22.414062 -3.945312 22.972656 -3.351562 23.671875 -2.6875 C 24.367188 -2.03125 25.238281 -1.488281 26.28125 -1.0625 C 27.320312 -0.632812 28.359375 -0.4375 29.390625 -0.46875 C 31.515625 -0.5625 33.4375 -1.507812 35.15625 -3.3125 C 39.007812 -7.34375 38.894531 -11.304688 34.8125 -15.203125 Z M 34.8125 -15.203125 "/></g></g></g><g fill="#faf9f7" fill-opacity="1"><g transform="translate(69.528381, 314.914633)"><g><path d="M 12.09375 3.28125 C 11.15625 4.820312 10.582031 5.847656 10.375 6.359375 L 3.703125 2.265625 L 20.859375 -25.75 L 27.421875 -21.734375 L 26.15625 -19.65625 C 28.726562 -20.46875 30.847656 -20.359375 32.515625 -19.328125 C 34.191406 -18.304688 35.382812 -17.296875 36.09375 -16.296875 L 31.203125 -9.375 L 31.0625 -9.359375 C 31.113281 -10.859375 30.15625 -12.210938 28.1875 -13.421875 C 27.4375 -13.878906 26.515625 -14.085938 25.421875 -14.046875 C 24.335938 -14.015625 23.269531 -13.742188 22.21875 -13.234375 Z M 12.09375 3.28125 "/></g></g></g><g fill="#faf9f7" fill-opacity="1"><g transform="translate(103.670822, 334.518354)"><g><path d="M 7.28125 -14.703125 C 8.007812 -16.890625 9.082031 -18.859375 10.5 -20.609375 C 11.914062 -22.359375 13.566406 -23.742188 15.453125 -24.765625 C 19.566406 -26.953125 24.046875 -27.234375 28.890625 -25.609375 C 33.722656 -23.992188 37.054688 -21.195312 38.890625 -17.21875 C 40.628906 -13.394531 40.722656 -9.164062 39.171875 -4.53125 C 37.628906 0.0820312 34.945312 3.441406 31.125 5.546875 C 27.082031 7.773438 22.617188 8.066406 17.734375 6.421875 C 12.679688 4.734375 9.253906 1.832031 7.453125 -2.28125 C 5.828125 -6.03125 5.769531 -10.171875 7.28125 -14.703125 Z M 14.578125 -12.453125 C 14.160156 -11.191406 13.960938 -9.90625 13.984375 -8.59375 C 14.003906 -7.289062 14.269531 -6.097656 14.78125 -5.015625 C 15.8125 -2.628906 17.664062 -0.988281 20.34375 -0.09375 C 22.832031 0.738281 25.085938 0.503906 27.109375 -0.796875 C 29.066406 -2.046875 30.503906 -4.039062 31.421875 -6.78125 C 32.359375 -9.5625 32.398438 -12.046875 31.546875 -14.234375 C 30.640625 -16.578125 28.851562 -18.195312 26.1875 -19.09375 C 23.476562 -20 21.035156 -19.734375 18.859375 -18.296875 C 16.867188 -16.960938 15.441406 -15.015625 14.578125 -12.453125 Z M 14.578125 -12.453125 "/></g></g></g><g fill="#faf9f7" fill-opacity="1"><g transform="translate(157.647393, 349.965264)"><g><path d="M 13.734375 -7.984375 C 12.898438 -7.003906 12.460938 -6.210938 12.421875 -5.609375 C 12.390625 -5.015625 12.460938 -4.550781 12.640625 -4.21875 C 12.816406 -3.894531 13.207031 -3.566406 13.8125 -3.234375 C 15.15625 -2.503906 17.390625 -1.804688 20.515625 -1.140625 C 23.648438 -0.484375 26.09375 0.257812 27.84375 1.09375 C 29.59375 1.925781 30.992188 2.910156 32.046875 4.046875 C 34.003906 6.179688 34.878906 9.109375 34.671875 12.828125 C 34.460938 16.554688 32.992188 19.347656 30.265625 21.203125 C 27.535156 23.054688 23.597656 23.84375 18.453125 23.5625 C 13.265625 23.269531 9.144531 21.90625 6.09375 19.46875 C 3.039062 17.03125 1.578125 13.941406 1.703125 10.203125 C 1.816406 5.835938 3.695312 2.78125 7.34375 1.03125 C 6.414062 0.1875 5.820312 -0.78125 5.5625 -1.875 C 5.300781 -2.96875 5.210938 -4.203125 5.296875 -5.578125 C 5.421875 -7.898438 6.539062 -9.816406 8.65625 -11.328125 C 6.425781 -13.703125 5.398438 -16.550781 5.578125 -19.875 C 5.785156 -23.59375 7.296875 -26.632812 10.109375 -29 C 13.085938 -31.476562 16.820312 -32.59375 21.3125 -32.34375 C 23.6875 -32.207031 25.878906 -31.644531 27.890625 -30.65625 C 30.671875 -31.664062 32.722656 -32.566406 34.046875 -33.359375 C 35.378906 -34.148438 36.238281 -34.734375 36.625 -35.109375 L 36.796875 -35.078125 C 36.960938 -34.566406 37.144531 -33.84375 37.34375 -32.90625 L 37.765625 -30.609375 C 38.171875 -28.722656 38.40625 -27.429688 38.46875 -26.734375 C 37.488281 -25.773438 35.832031 -25.148438 33.5 -24.859375 C 34.289062 -23.085938 34.632812 -21.226562 34.53125 -19.28125 C 34.425781 -17.332031 33.992188 -15.585938 33.234375 -14.046875 C 32.484375 -12.503906 31.453125 -11.164062 30.140625 -10.03125 C 27.253906 -7.613281 23.691406 -6.519531 19.453125 -6.75 C 17.378906 -6.863281 15.472656 -7.273438 13.734375 -7.984375 Z M 13.703125 -22.171875 C 13.359375 -21.421875 13.164062 -20.65625 13.125 -19.875 C 13.082031 -19.101562 13.203125 -18.351562 13.484375 -17.625 C 13.773438 -16.894531 14.21875 -16.234375 14.8125 -15.640625 C 16.144531 -14.304688 17.941406 -13.578125 20.203125 -13.453125 C 21.921875 -13.359375 23.441406 -13.847656 24.765625 -14.921875 C 26.140625 -16.109375 26.875 -17.585938 26.96875 -19.359375 C 27.070312 -21.128906 26.554688 -22.585938 25.421875 -23.734375 C 24.296875 -24.890625 22.6875 -25.523438 20.59375 -25.640625 C 17.144531 -25.835938 14.847656 -24.679688 13.703125 -22.171875 Z M 19.234375 16.921875 C 24.378906 17.210938 27.050781 15.5625 27.25 11.96875 C 27.34375 10.25 26.582031 8.816406 24.96875 7.671875 C 23.15625 6.390625 19.976562 5.285156 15.4375 4.359375 L 13.828125 3.984375 C 12.398438 4.640625 11.328125 5.519531 10.609375 6.625 C 9.898438 7.738281 9.519531 8.816406 9.46875 9.859375 C 9.425781 10.898438 9.625 11.8125 10.0625 12.59375 C 10.5 13.375 11.132812 14.066406 11.96875 14.671875 C 13.800781 16.003906 16.222656 16.753906 19.234375 16.921875 Z M 19.234375 16.921875 "/></g></g></g><g fill="#faf9f7" fill-opacity="1"><g transform="translate(212.864146, 350.118997)"><g><path d="M 11.265625 -5.515625 C 11.566406 -3.734375 11.8125 -2.582031 12 -2.0625 L 4.28125 -0.734375 L -1.296875 -33.109375 L 6.28125 -34.421875 L 6.703125 -32.03125 C 8.109375 -34.332031 9.78125 -35.648438 11.71875 -35.984375 C 13.65625 -36.316406 15.210938 -36.34375 16.390625 -36.0625 L 17.28125 -27.625 L 17.171875 -27.515625 C 16.234375 -28.679688 14.625 -29.066406 12.34375 -28.671875 C 11.476562 -28.523438 10.648438 -28.078125 9.859375 -27.328125 C 9.066406 -26.578125 8.441406 -25.671875 7.984375 -24.609375 Z M 11.265625 -5.515625 "/></g></g></g><g fill="#faf9f7" fill-opacity="1"><g transform="translate(251.452309, 342.346226)"><g><path d="M 23.515625 -11.953125 C 21.398438 -9.316406 19.226562 -7.53125 17 -6.59375 C 14.78125 -5.664062 12.789062 -5.078125 11.03125 -4.828125 C 9.269531 -4.585938 7.671875 -4.644531 6.234375 -5 C 3.304688 -5.707031 1.1875 -7.617188 -0.125 -10.734375 C -1.28125 -13.503906 -0.878906 -16.394531 1.078125 -19.40625 C 3.210938 -22.65625 6.832031 -25.347656 11.9375 -27.484375 L 13.109375 -27.953125 C 13.359375 -28.023438 13.628906 -28.117188 13.921875 -28.234375 C 14.210938 -28.347656 14.476562 -28.429688 14.71875 -28.484375 C 13.269531 -31.515625 11.1875 -32.765625 8.46875 -32.234375 C 7.550781 -32.054688 6.625 -31.769531 5.6875 -31.375 C 4.75 -30.976562 3.863281 -30.507812 3.03125 -29.96875 C 2.207031 -29.4375 1.425781 -28.859375 0.6875 -28.234375 C -0.9375 -26.847656 -1.992188 -25.597656 -2.484375 -24.484375 L -2.578125 -24.515625 L -6.140625 -30.53125 C -3.472656 -33.769531 -0.109375 -36.238281 3.953125 -37.9375 C 10.253906 -40.570312 15.234375 -39.992188 18.890625 -36.203125 C 20.066406 -34.972656 21.035156 -33.453125 21.796875 -31.640625 L 26.1875 -21.140625 C 27.125 -18.890625 28.550781 -17.695312 30.46875 -17.5625 L 27.234375 -10.546875 C 25.890625 -10.660156 24.648438 -11.128906 23.515625 -11.953125 Z M 16.9375 -23.28125 C 16.375 -23.15625 15.816406 -22.976562 15.265625 -22.75 L 14.09375 -22.25 C 9.8125 -20.46875 7.5 -18.378906 7.15625 -15.984375 C 7.03125 -15.285156 7.097656 -14.625 7.359375 -14 C 7.617188 -13.382812 7.957031 -12.890625 8.375 -12.515625 C 8.800781 -12.140625 9.335938 -11.90625 9.984375 -11.8125 C 11.234375 -11.65625 12.847656 -11.988281 14.828125 -12.8125 C 16.804688 -13.644531 18.457031 -14.894531 19.78125 -16.5625 C 19.675781 -16.757812 19.570312 -16.976562 19.46875 -17.21875 Z M 16.9375 -23.28125 "/></g></g></g><g fill="#faf9f7" fill-opacity="1"><g transform="translate(303.262674, 318.751523)"><g><path d="M 4.078125 -15.40625 C 7.128906 -11.820312 9.160156 -9.578125 10.171875 -8.671875 L 3.921875 -3.34375 L -17.390625 -28.34375 L -11.34375 -33.5 L -9.5 -31.34375 C -8.8125 -34.957031 -7.320312 -37.742188 -5.03125 -39.703125 C -2.3125 -42.015625 0.660156 -42.523438 3.890625 -41.234375 C 4.046875 -43.546875 4.359375 -45.25 4.828125 -46.34375 C 5.597656 -48.164062 6.664062 -49.660156 8.03125 -50.828125 C 9.394531 -51.992188 10.75 -52.753906 12.09375 -53.109375 C 13.445312 -53.460938 14.796875 -53.476562 16.140625 -53.15625 C 18.859375 -52.53125 21.488281 -50.726562 24.03125 -47.75 L 32.140625 -38.21875 C 34.441406 -35.519531 35.863281 -33.929688 36.40625 -33.453125 C 36.945312 -32.984375 37.351562 -32.726562 37.625 -32.6875 C 37.90625 -32.644531 38.144531 -32.597656 38.34375 -32.546875 L 38.375 -32.421875 C 37 -31.441406 36.007812 -30.691406 35.40625 -30.171875 L 33.609375 -28.640625 C 33.015625 -28.140625 32.304688 -27.5 31.484375 -26.71875 L 20.453125 -39.65625 C 17.273438 -43.394531 14.816406 -45.128906 13.078125 -44.859375 C 12.492188 -44.742188 11.945312 -44.46875 11.4375 -44.03125 C 10.925781 -43.59375 10.519531 -43.140625 10.21875 -42.671875 C 9.914062 -42.210938 9.707031 -41.695312 9.59375 -41.125 C 9.363281 -40.1875 9.414062 -38.769531 9.75 -36.875 C 9.863281 -36.769531 9.972656 -36.65625 10.078125 -36.53125 C 10.191406 -36.40625 11.988281 -34.300781 15.46875 -30.21875 C 18.945312 -26.132812 21.84375 -22.925781 24.15625 -20.59375 C 22.800781 -19.4375 21.648438 -18.453125 20.703125 -17.640625 C 19.753906 -16.835938 18.867188 -16.046875 18.046875 -15.265625 L 7 -28.234375 C 4.78125 -30.835938 3.179688 -32.390625 2.203125 -32.890625 C 1.222656 -33.398438 0.457031 -33.628906 -0.09375 -33.578125 C -0.644531 -33.523438 -1.175781 -33.28125 -1.6875 -32.84375 C -3.789062 -31.050781 -4.679688 -28.539062 -4.359375 -25.3125 Z M 4.078125 -15.40625 "/></g></g></g></svg>